<?xml version="1.0" encoding="UTF-8" standalone="no"?>
<!-- Created with Inkscape (http://www.inkscape.org/) -->

<svg
   xmlns:dc="http://purl.org/dc/elements/1.1/"
   xmlns:cc="http://creativecommons.org/ns#"
   xmlns:rdf="http://www.w3.org/1999/02/22-rdf-syntax-ns#"
   xmlns:svg="http://www.w3.org/2000/svg"
   xmlns="http://www.w3.org/2000/svg"
   xmlns:xlink="http://www.w3.org/1999/xlink"
   xmlns:sodipodi="http://sodipodi.sourceforge.net/DTD/sodipodi-0.dtd"
   xmlns:inkscape="http://www.inkscape.org/namespaces/inkscape"
   width="128"
   height="128"
   id="svg2"
   version="1.1"
   inkscape:version="0.48.2 r9819"
   sodipodi:docname="player.svg">
  <defs
     id="defs4">
    <linearGradient
       id="linearGradient3099">
      <stop
         style="stop-color:#959595;stop-opacity:1;"
         offset="0"
         id="stop3101" />
      <stop
         id="stop3107"
         offset="0.7361111"
         style="stop-color:#848484;stop-opacity:1;" />
      <stop
         style="stop-color:#737373;stop-opacity:1;"
         offset="1"
         id="stop3103" />
    </linearGradient>
    <radialGradient
       inkscape:collect="always"
       xlink:href="#linearGradient3099"
       id="radialGradient3105"
       cx="153.08862"
       cy="901.74329"
       fx="153.08862"
       fy="901.74329"
       r="50.000008"
       gradientTransform="matrix(7.8245406e-7,-0.86315896,0.87745975,-5.4234328e-6,-724.15494,1126.8932)"
       gradientUnits="userSpaceOnUse" />
    <radialGradient
       inkscape:collect="always"
       xlink:href="#linearGradient3099"
       id="radialGradient3894"
       gradientUnits="userSpaceOnUse"
       gradientTransform="matrix(-1.2840407,-0.00416742,0.00609548,-1.8781052,101.91168,2691.465)"
       cx="83.239212"
       cy="902.80908"
       fx="83.239212"
       fy="902.80908"
       r="12.609204" />
    <filter
       inkscape:collect="always"
       id="filter4007"
       x="-0.066812817"
       width="1.1336256"
       y="-0.11122054"
       height="1.2224411">
      <feGaussianBlur
         inkscape:collect="always"
         stdDeviation="3.1084123"
         id="feGaussianBlur4009" />
      <feColorMatrix
         id="feColorMatrix4355"
         type="saturate"
         values="0" />
    </filter>
    <radialGradient
       inkscape:collect="always"
       xlink:href="#linearGradient3099"
       id="radialGradient4023"
       gradientUnits="userSpaceOnUse"
       gradientTransform="matrix(-1.2840407,-0.00416742,0.00609548,-1.8781052,101.91168,2691.465)"
       cx="83.239212"
       cy="902.80908"
       fx="83.239212"
       fy="902.80908"
       r="12.609204" />
    <radialGradient
       inkscape:collect="always"
       xlink:href="#linearGradient3099"
       id="radialGradient4025"
       gradientUnits="userSpaceOnUse"
       gradientTransform="matrix(7.8245406e-7,-0.86315896,0.87745975,-5.4234328e-6,-724.15494,1126.8932)"
       cx="153.08862"
       cy="901.74329"
       fx="153.08862"
       fy="901.74329"
       r="50.000008" />
  </defs>
  <sodipodi:namedview
     id="base"
     pagecolor="#ffffff"
     bordercolor="#666666"
     borderopacity="1.0"
     inkscape:pageopacity="0.0"
     inkscape:pageshadow="2"
     inkscape:zoom="5.6568542"
     inkscape:cx="40.588863"
     inkscape:cy="42.720808"
     inkscape:document-units="px"
     inkscape:current-layer="layer1"
     showgrid="false"
     inkscape:window-width="1858"
     inkscape:window-height="1057"
     inkscape:window-x="54"
     inkscape:window-y="-8"
     inkscape:window-maximized="1"
     showguides="true"
     inkscape:guide-bbox="true" />
  <metadata
     id="metadata7">
    <rdf:RDF>
      <cc:Work
         rdf:about="">
        <dc:format>image/svg+xml</dc:format>
        <dc:type
           rdf:resource="http://purl.org/dc/dcmitype/StillImage" />
        <dc:title />
      </cc:Work>
    </rdf:RDF>
  </metadata>
  <g
     inkscape:label="Layer 1"
     inkscape:groupmode="layer"
     id="layer1"
     transform="translate(0,-924.36218)">
    <use
       x="0"
       y="0"
       xlink:href="#g3896"
       id="use3965"
       width="128"
       height="128"
       style="filter:url(#filter4007)" />
    <g
       id="g3896"
       transform="matrix(0.67967723,0,0,0.67967723,21.114049,317.4198)">
      <path
         transform="matrix(1.1612768,0,0,0.59073343,-326.63122,780.66712)"
         d="m 402.54579,363.43814 c 0,36.54192 -29.62307,66.16499 -66.16499,66.16499 -36.54192,0 -66.16499,-29.62307 -66.16499,-66.16499 0,-36.54192 29.62307,-66.16499 66.16499,-66.16499 36.54192,0 66.16499,29.62307 66.16499,66.16499 z"
         sodipodi:ry="66.164993"
         sodipodi:rx="66.164993"
         sodipodi:cy="363.43814"
         sodipodi:cx="336.3808"
         id="path2993-1"
         style="fill:#782121;fill-rule:evenodd;stroke:#000000;stroke-width:2.41471767;stroke-linecap:butt;stroke-linejoin:miter;stroke-miterlimit:4;stroke-opacity:1;stroke-dasharray:none"
         sodipodi:type="arc" />
      <path
         transform="translate(-86,93)"
         d="m 180.489,869.75183 c 0,7.61522 -14.00878,13.78858 -31.28948,13.78858 -17.2807,0 -31.28947,-6.17336 -31.28947,-13.78858 0,-7.61522 14.00877,-13.78858 31.28947,-13.78858 17.2807,0 31.28948,6.17336 31.28948,13.78858 z"
         sodipodi:ry="13.788582"
         sodipodi:rx="31.289474"
         sodipodi:cy="869.75183"
         sodipodi:cx="149.19952"
         id="path3097"
         style="fill:#000000"
         sodipodi:type="arc" />
      <path
         sodipodi:nodetypes="cscc"
         inkscape:connector-curvature="0"
         id="path3109"
         d="m 5.923883,1024.3622 c -13.180195,0 -24.218407,-15.4865 -24.218407,-30.22883 0,-14.74229 10.684659,-26.69328 23.864854,-26.69328 -4.452267,16.7486 -4.93337805,40.67051 0.353553,56.92211 z"
         style="fill:url(#radialGradient4023);stroke:#000000;stroke-width:2;stroke-miterlimit:4;stroke-dasharray:none" />
      <path
         inkscape:connector-curvature="0"
         id="path2993"
         d="M 56.40625,946.3125 C 32.60092,949.96511 14.375,970.54793 14.375,995.375 14.375,1022.7821 36.59287,1045 64,1045 c 27.40713,0 49.625,-22.2179 49.625,-49.625 0,-24.68305 -18.02248,-45.14264 -41.625,-48.96875 l 0.0937,5.34375 c 6.62615,0.60026 15.13535,4.41112 20.84375,8.625 l -0.5625,5.75 c -6.9862,-2.91732 -18.49603,-5.05085 -28.15625,-5.375 -9.66022,0.32415 -21.0138,2.83268 -28,5.75 l -0.75,-5.75 c 3.94064,-4.21388 14.06135,-8.39974 20.6875,-9 l 0.25,-5.4375 z"
         style="fill:url(#radialGradient4025);fill-opacity:1;fill-rule:evenodd;stroke:#000000;stroke-width:2;stroke-linecap:butt;stroke-linejoin:miter;stroke-miterlimit:4;stroke-opacity:1;stroke-dasharray:none" />
      <use
         style="stroke-width:0;stroke-miterlimit:4;stroke-dasharray:none"
         height="1052.3622"
         width="744.09448"
         transform="matrix(-1,0,0,1,127.69196,2.9509296e-6)"
         id="use3114"
         xlink:href="#path3109"
         y="0"
         x="0" />
    </g>
  </g>
</svg>
